<svg width="48" height="47" viewBox="0 0 48 47" fill="none" xmlns="http://www.w3.org/2000/svg">
<path d="M19.0859 31.9608L19.064 31.8951L19.0202 31.8273L18.9961 31.7594L18.9742 31.7156L18.9524 31.6478L18.9305 31.5581L18.9064 31.5121L18.8626 31.4464L18.8407 31.3786L18.8167 31.3107L18.7948 31.2451L18.751 31.1093L18.705 31.0415L18.6831 30.9758L18.6394 30.8401L18.6153 30.7745L18.5934 30.7066L18.5496 30.6388L18.5255 30.5709L18.5037 30.5052L18.4818 30.5709L18.4599 30.6388L18.4358 30.7066L18.392 30.7745L18.3701 30.8401L18.3461 30.908L18.3242 30.9758L18.2804 31.0415V31.1093L18.2344 31.1772L18.2125 31.2451L18.1907 31.3107L18.1688 31.3786L18.1447 31.4464L18.1228 31.5121L18.079 31.5581L18.055 31.6478L18.0331 31.7156L18.0112 31.7594L17.9893 31.8273L17.9433 31.917L17.9214 31.9608L17.8996 32.0286H19.11L19.0859 31.9608ZM19.0859 31.9608L19.064 31.8951L19.0202 31.8273L18.9961 31.7594L18.9742 31.7156L18.9524 31.6478L18.9305 31.5581L18.9064 31.5121L18.8626 31.4464L18.8407 31.3786L18.8167 31.3107L18.7948 31.2451L18.751 31.1093L18.705 31.0415L18.6831 30.9758L18.6394 30.8401L18.6153 30.7745L18.5934 30.7066L18.5496 30.6388L18.5255 30.5709L18.5037 30.5052L18.4818 30.5709L18.4599 30.6388L18.4358 30.7066L18.392 30.7745L18.3701 30.8401L18.3461 30.908L18.3242 30.9758L18.2804 31.0415V31.1093L18.2344 31.1772L18.2125 31.2451L18.1907 31.3107L18.1688 31.3786L18.1447 31.4464L18.1228 31.5121L18.079 31.5581L18.055 31.6478L18.0331 31.7156L18.0112 31.7594L17.9893 31.8273L17.9433 31.917L17.9214 31.9608L17.8996 32.0286H19.11L19.0859 31.9608ZM20.3641 8.56257H19.4908V14.6124H20.3641C20.8347 14.6124 21.2156 14.2315 21.2156 13.7391V9.4359C21.2156 8.94342 20.8347 8.56257 20.3641 8.56257ZM20.3641 8.56257H19.4908V14.6124H20.3641C20.8347 14.6124 21.2156 14.2315 21.2156 13.7391V9.4359C21.2156 8.94342 20.8347 8.56257 20.3641 8.56257ZM5.88525 0V38.6191L23.8159 47L41.7465 38.6191V0H5.88525ZM25.5406 5.98417H28.1409V22.3695H25.5406V5.98417ZM23.8596 29.6297L23.9056 29.6976L23.9494 29.7414L23.9735 29.8092L24.0172 29.8771L24.0632 29.9208L24.0851 29.9887L24.1289 30.0565L24.1748 30.1244L24.1967 30.1682L24.2427 30.236L24.2865 30.3017L24.3083 30.3476L24.3543 30.4155L24.3762 30.4812L24.42 30.5271L24.4659 30.595L24.5097 30.6606L24.5338 30.7066L24.5776 30.7745L24.6235 30.8401L24.6454 30.908L24.6892 30.9518L24.7133 30.908L24.757 30.8401L24.803 30.7745L24.8468 30.7066L24.8687 30.6606L24.9146 30.595L24.9584 30.5271L24.9803 30.4812L25.0263 30.4155L25.0482 30.3476L25.0941 30.3017L25.1379 30.236L25.1598 30.1682L25.2057 30.1244L25.2495 30.0565L25.2955 29.9887L25.3174 29.9208L25.3633 29.8771L25.3852 29.8092L25.429 29.7414L25.475 29.6976L25.4969 29.6297L25.5406 29.5641L25.5866 29.4962L25.6304 29.4502L25.6545 29.3846L25.6982 29.3167L25.7442 29.2708L25.7661 29.2051L25.8099 29.1591L25.8339 29.0935L25.8777 29.0256L25.9237 28.9578L25.9675 28.914H27.4252V34.1124H26.0353V31.0415L26.0134 31.0875L25.9675 31.1553L25.9237 31.221L25.8777 31.2669L25.8558 31.3348L25.8099 31.4005L25.7661 31.4464L25.7442 31.5121L25.6982 31.5799L25.6545 31.6259L25.6085 31.6916L25.5866 31.7594L25.5406 31.8054L25.4969 31.871L25.475 31.9389L25.429 31.9827L25.3852 32.0505L25.3393 32.1184L25.3174 32.1622L25.2736 32.23L25.2276 32.2979L25.1839 32.3416L25.1598 32.4095L25.116 32.4773L25.07 32.5211L25.0263 32.589L25.0044 32.6327L24.9584 32.7006L24.9146 32.7685L24.8687 32.8122L24.8468 32.8801L24.803 32.9479L24.757 32.9917L24.7133 33.0596L24.6892 33.1274H24.6673L24.6235 33.0596L24.5776 32.9917L24.5338 32.9479L24.5097 32.8801L24.4659 32.8122L24.42 32.7685L24.3762 32.7006L24.3543 32.6327L24.3083 32.5671L24.2646 32.5211L24.2186 32.4555L24.1967 32.3876L24.1529 32.3198L24.107 32.276L24.0632 32.2081L24.0391 32.1403L23.9953 32.0724L23.9494 32.0286L23.9056 31.9608L23.8596 31.8951L23.8378 31.8492L23.794 31.7813L23.748 31.7156L23.7042 31.6697L23.6823 31.6018L23.6364 31.5362L23.5926 31.4683L23.5466 31.4223L23.5248 31.3567L23.4788 31.2888L23.435 31.221L23.389 31.1772L23.3672 31.1093L23.3234 31.0415V34.1124H21.9554V28.914H23.435L23.4569 28.9578L23.5029 29.0256L23.5466 29.0935L23.5685 29.1591L23.6145 29.2051L23.6364 29.2708L23.6823 29.3167L23.7261 29.3846L23.748 29.4502L23.794 29.4962L23.8378 29.5641L23.8596 29.6297ZM16.9124 5.98417H20.6771C22.7849 5.98417 23.8159 7.01509 23.8159 9.1229V14.2315C23.8159 16.2058 22.8528 17.1908 20.8807 17.1908H19.5127V22.3695H16.9124V5.98417ZM15.1198 33.4185L15.0738 33.4623L15.0082 33.4864L14.9622 33.5302L14.8943 33.5761L14.8506 33.6199L14.7827 33.6418L14.7389 33.6877L14.6711 33.7315L14.6032 33.7534L14.5376 33.7994L14.4916 33.8213L14.4237 33.8672L14.3581 33.8891L14.2902 33.9329L14.2224 33.957L14.1567 33.9789L14.021 34.0226L13.9532 34.0467L13.8875 34.0686L13.7518 34.1124L13.6861 34.1365L13.6183 34.1583H13.5504L13.4826 34.1802H13.3272L13.2593 34.2021H13.1017L13.036 34.224H12.7209L12.653 34.2021H12.4976L12.4298 34.1802H12.3619L12.2962 34.1583H12.2065L12.1605 34.1365H12.0708L12.0051 34.1124L11.8694 34.0686L11.8256 34.0467L11.7578 34.0226L11.6899 34.0007L11.6221 33.957L11.5564 33.9329L11.4886 33.911L11.4207 33.8672L11.3769 33.8213L11.3091 33.7994L11.2412 33.7534L11.1975 33.7315L11.1296 33.6877L11.0858 33.6418L11.018 33.598L10.9282 33.5083L10.8604 33.4623L10.7706 33.3726L10.7269 33.3069L10.6371 33.2172L10.5912 33.1493L10.5474 33.1033L10.5014 33.0377L10.4795 32.9917L10.4358 32.926L10.4117 32.8582L10.3679 32.8122L10.346 32.7466L10.3001 32.6787L10.2563 32.543L10.2344 32.4992L10.2103 32.4314L10.1884 32.3657L10.1665 32.2979V32.23L10.1446 32.1622L10.1206 32.0965V32.0286L10.0987 31.9608V31.8951L10.0768 31.8273V31.221L10.0987 31.1312V31.0656L10.1206 30.9977V30.9299L10.1446 30.862L10.1665 30.7963L10.2103 30.6606L10.2344 30.595L10.3001 30.3914L10.346 30.3258L10.3679 30.2579L10.4117 30.1901L10.4358 30.1463L10.4795 30.0784L10.5014 30.0346L10.5474 29.9668L10.5912 29.8989L10.6371 29.8552L10.6809 29.7873L10.7706 29.6976L10.8166 29.6538L10.8604 29.5859L10.9501 29.4962L11.018 29.4502L11.0618 29.4065L11.1296 29.3605L11.1756 29.3386L11.2412 29.2948L11.2872 29.2489L11.3551 29.2051L11.4207 29.181L11.4886 29.1372L11.5323 29.1154L11.6002 29.0694L11.7359 29.0256L11.8016 28.9796H11.8694L11.9373 28.9359H12.0051L12.0708 28.914L12.1386 28.8899L12.2065 28.868L12.2722 28.8461H12.4079L12.4976 28.8242H12.6311L12.699 28.8002H13.012L13.0798 28.8242H13.3031L13.3928 28.8461H13.4388L13.5285 28.868H13.5964L13.662 28.8899L13.708 28.914H13.7737L13.9772 28.9796L14.0429 29.0037L14.0889 29.0256L14.1567 29.0475L14.2224 29.0935L14.2902 29.1154L14.3581 29.1591L14.4019 29.181L14.4697 29.227L14.5376 29.2489L14.6032 29.2948L14.6492 29.3386L14.717 29.3605L14.7608 29.4065L14.8287 29.4502L14.8724 29.5181L14.9403 29.54L14.8943 29.6078L14.8506 29.6538L14.8068 29.7195L14.7608 29.7654L14.717 29.8311L14.6711 29.8771L14.6273 29.9449L14.5813 29.9887L14.5376 30.0346L14.4916 30.1003L14.4478 30.1682L14.38 30.2141L14.334 30.2579L14.3121 30.3258L14.1567 30.4812L14.1107 30.549L14.067 30.5052L13.9991 30.4593L13.9532 30.4155L13.8875 30.3695L13.8415 30.3476L13.7737 30.3017L13.708 30.2579L13.662 30.236L13.5964 30.2141L13.5504 30.1682L13.4826 30.1463L13.4169 30.1244L13.349 30.1003H13.2812L13.2133 30.0784L13.1477 30.0565H12.9901L12.9222 30.0346H12.7668L12.699 30.0565H12.6311L12.5655 30.0784H12.4976L12.4298 30.1003L12.3619 30.1244L12.3181 30.1682L12.2503 30.1901L12.1824 30.2141L12.1386 30.2579L12.0708 30.3017L11.981 30.3914L11.9154 30.4155L11.8694 30.4812L11.8256 30.5271L11.7797 30.5709L11.7578 30.6388L11.7118 30.6847L11.6899 30.7504L11.6462 30.8182L11.6221 30.8861L11.6002 30.9299L11.5564 30.9977L11.5323 31.0875V31.1553L11.5105 31.221V31.2888L11.4886 31.3567V31.6697L11.5105 31.7375V31.8054L11.5323 31.871V31.9389L11.5564 32.0068L11.5783 32.0724L11.6002 32.1184L11.6462 32.2519L11.6899 32.3198L11.7118 32.3876L11.7578 32.4314L11.8016 32.4992L11.981 32.6787L12.0489 32.7225L12.0927 32.7685L12.1605 32.8122L12.2065 32.8363L12.2722 32.8801L12.34 32.902L12.4079 32.926L12.4757 32.9479L12.5414 32.9698L12.6311 32.9917H12.699L12.7668 33.0158H13.0798L13.1696 32.9917H13.2374L13.3031 32.9698H13.3709L13.5066 32.926L13.5723 32.902L13.6402 32.8801L13.708 32.8363L13.7518 32.8122L13.7977 32.7903V32.1184H12.7668V31.0875H15.1198V33.4185ZM15.1876 8.56257H12.5873V12.8876H15.1876V15.466H12.5873V19.7911H15.1876V22.3695H10.0089V5.98417H15.1876V8.56257ZM17.1597 33.9329L17.1357 34.0007L17.1138 34.0467L17.07 34.1124H15.6341L15.6801 34.0467L15.702 34.0007L15.7239 33.9329L15.748 33.8432L15.7699 33.7994L15.8136 33.7315L15.8377 33.6637L15.8596 33.598L15.9034 33.5302L15.9274 33.4623L15.9493 33.3966L15.9931 33.2609L16.0391 33.1931V33.1493L16.061 33.0815L16.1047 33.0158L16.1288 32.9479L16.1507 32.8801L16.1945 32.8363L16.2186 32.7685L16.2623 32.6327L16.3083 32.5671L16.3521 32.4314L16.398 32.3657L16.4637 32.1622L16.4878 32.0965L16.5316 32.0286L16.5534 31.9827L16.5753 31.8951L16.5994 31.8273L16.6432 31.7813L16.6651 31.7156L16.6891 31.6478L16.711 31.5799L16.7548 31.5121L16.7789 31.4464L16.8227 31.3107L16.8686 31.2451L16.9343 31.0415L16.9584 30.9758L17.0021 30.9299L17.024 30.862L17.0481 30.7963L17.0919 30.7285L17.1138 30.6606L17.1357 30.595L17.1597 30.5271L17.1816 30.4593L17.2254 30.3914L17.2495 30.3258L17.2933 30.1901L17.3151 30.1244L17.3611 30.0565L17.383 30.0106L17.4049 29.9449L17.4508 29.8552L17.4727 29.8092L17.4946 29.7414L17.5187 29.6757L17.5406 29.6078L17.5844 29.54L17.6084 29.4743L17.6522 29.3386L17.696 29.2708L17.7201 29.2051L17.742 29.1591L17.7638 29.0694L17.8098 29.0037L17.8317 28.9578L17.8536 28.8899H19.1756L19.2216 28.9578L19.2435 29.0037L19.2654 29.0694L19.2894 29.1591L19.3113 29.2051L19.3332 29.2708L19.3551 29.3386L19.4011 29.4065L19.423 29.4502L19.4448 29.54L19.4908 29.5859L19.5127 29.6538L19.5346 29.7195L19.5565 29.7873L19.5805 29.8552L19.6243 29.9208L19.6462 29.9887L19.6703 30.0565L19.6922 30.1244L19.736 30.1901L19.76 30.2579L19.7819 30.3258L19.8038 30.3914L19.8498 30.4593L19.8717 30.5052L19.8935 30.5709L19.9154 30.6388L19.9614 30.7066L19.9833 30.7745L20.0052 30.8401L20.0271 30.908L20.0511 30.9758L20.0949 31.0415L20.1168 31.1093L20.1409 31.1772L20.1847 31.2451L20.2065 31.3107L20.2306 31.3786L20.2525 31.4223L20.2963 31.5581L20.3204 31.6259L20.3641 31.6916L20.386 31.7594L20.4101 31.8054L20.432 31.871L20.4758 31.9608L20.4977 32.0068L20.5217 32.0724L20.5436 32.1403L20.5874 32.2081L20.6115 32.276L20.6334 32.3416L20.6771 32.4773L20.7231 32.543L20.7669 32.6787L20.8128 32.7466L20.8347 32.8122L20.8566 32.8801L20.8807 32.926L20.9026 32.9917L20.9464 33.0596L20.9704 33.1274L20.9923 33.1931L21.0142 33.2609L21.058 33.3288L21.0821 33.3966L21.1039 33.4623L21.1258 33.5302L21.1718 33.598L21.1937 33.6637L21.2375 33.7994L21.2834 33.8432L21.3053 33.9329L21.3272 34.0007L21.3513 34.0467L21.3732 34.1124H19.9154L19.8717 34.0467L19.8498 34.0007L19.8257 33.9329L19.8038 33.8432L19.7819 33.7994L19.76 33.7315L19.7141 33.6637L19.6922 33.598L19.6703 33.5302L19.6462 33.4623L19.6243 33.3966L19.6024 33.3288L19.5565 33.2609L19.5346 33.1931L19.5127 33.1274H17.4727L17.4508 33.1931L17.429 33.2609L17.383 33.3288L17.3611 33.3966L17.3392 33.4623L17.3151 33.5302L17.2933 33.598L17.2714 33.6637L17.2254 33.7315L17.2035 33.7994L17.1816 33.8432L17.1597 33.9329ZM30.3166 39.5822L23.7261 42.4736H23.6145L17.2933 39.5822C17.1357 39.5143 17.1816 39.2911 17.3392 39.2911H30.2487C30.4282 39.2911 30.472 39.5143 30.3166 39.5822ZM32.6236 34.1124H28.478V28.914H32.6017V30.0784H29.8219V30.9299H32.3106V32.0505H29.8219V32.9479H32.6236V34.1124ZM37.5549 32.7685L37.533 32.8363V32.902L37.5112 32.9698L37.4871 33.0377L37.4652 33.1274L37.4433 33.1712L37.4214 33.239L37.3755 33.3069L37.3536 33.3507L37.3076 33.4185L37.2638 33.4864L37.2419 33.5302L37.196 33.5761L37.1522 33.6418L37.1062 33.6637L37.0406 33.7315L36.9946 33.7775L36.9267 33.8213L36.883 33.8432L36.8151 33.8891L36.7473 33.9329L36.7035 33.957L36.6356 34.0007L36.5459 34.0226L36.4802 34.0467L36.2767 34.1124L36.211 34.1365H36.1432L36.0753 34.1583H36.0096L35.9418 34.1802H35.8061L35.7163 34.2021H35.202L35.1341 34.1802H34.9787L34.9109 34.1583H34.843L34.7752 34.1365H34.6854L34.6198 34.1124L34.4841 34.0686H34.4184L34.3505 34.0467L34.2827 34.0226L34.2148 34.0007L34.1492 33.9789L34.0813 33.957L34.0135 33.911L33.9456 33.8891L33.8799 33.8672L33.8121 33.8213L33.7442 33.7994L33.6786 33.7534L33.6326 33.7315L33.5648 33.6877L33.4991 33.6418L33.4531 33.6199L33.3853 33.5761L33.3415 33.5302L33.2736 33.4864L33.2299 33.4404L33.162 33.3966L33.1182 33.3507L33.162 33.3069L33.208 33.239L33.2518 33.1931L33.2977 33.1274L33.3415 33.0815L33.3853 33.0158L33.475 32.926L33.521 32.8582L33.5648 32.8122L33.6107 32.7466L33.6545 32.7006L33.7005 32.6327L33.7442 32.589L33.7902 32.5211L33.8581 32.4773L33.8799 32.4314L33.9456 32.4555L34.0135 32.4992L34.0594 32.543L34.1251 32.589L34.1929 32.6327L34.2608 32.6787L34.3046 32.7006L34.3724 32.7466L34.4403 32.7685L34.5059 32.8122L34.5519 32.8363L34.6198 32.8582L34.6854 32.8801L34.7533 32.902L34.8211 32.926L34.889 32.9479L34.9546 32.9698L35.0225 32.9917H35.1122L35.1801 33.0158H35.2458L35.3136 33.0377H35.7163L35.7842 33.0158H35.852L35.9199 32.9917L35.9637 32.9698L36.0096 32.9479L36.0753 32.902L36.1213 32.8582L36.165 32.7225V32.5671L36.1432 32.4773L36.0534 32.3876L35.9856 32.3416L35.9418 32.3198L35.8061 32.276L35.7163 32.23L35.6726 32.2081H35.6047L35.5391 32.1862L35.4712 32.1622L35.3355 32.1184L35.2698 32.0965H35.1801L35.1122 32.0724L35.0444 32.0505L34.9787 32.0286H34.889L34.8211 32.0068L34.7533 31.9827L34.6854 31.9608L34.6198 31.9389L34.5519 31.917L34.5059 31.8951L34.4184 31.871L34.3505 31.8492L34.2827 31.8054L34.2148 31.7813L34.1492 31.7594L34.0594 31.7156L34.0135 31.6697L33.9456 31.6478L33.8799 31.6018L33.7442 31.4683L33.6786 31.4223L33.6326 31.3786L33.5888 31.3107L33.5648 31.2669L33.521 31.221L33.4991 31.1553L33.4531 31.0875L33.4312 31.0415V30.9758L33.4094 30.908L33.3853 30.8401L33.3634 30.7745V30.6388L33.3415 30.5709V30.3914L33.3634 30.3258V30.1901L33.3853 30.1244L33.4094 30.0565L33.4312 29.9887V29.9208L33.4531 29.8771L33.4991 29.8092L33.521 29.7414L33.5648 29.6757L33.5888 29.6078L33.6326 29.54L33.6786 29.4962L33.7224 29.4284L33.7683 29.3846L33.834 29.3386L33.8799 29.2708L33.9237 29.2489L33.9916 29.2051L34.0353 29.1591L34.1032 29.1154L34.1711 29.0935L34.2389 29.0475L34.3046 29.0256L34.3724 28.9796H34.4403L34.5059 28.9359L34.5738 28.914H34.6198L34.6854 28.8899L34.7533 28.868H34.8211L34.889 28.8461H35.0225L35.1122 28.8242H35.5609L35.6266 28.8461H35.852L35.9418 28.868H36.0096L36.0753 28.8899L36.1432 28.914H36.211L36.2767 28.9359L36.4124 28.9796H36.4802L36.5459 29.0256L36.6816 29.0694L36.7473 29.0935L36.8151 29.1372L36.883 29.1591L36.9267 29.181L36.9946 29.227L37.0625 29.2708L37.1303 29.2948L37.1741 29.3386L37.2419 29.3846L37.3076 29.4284L37.3536 29.4743L37.4214 29.5181L37.3755 29.5641L37.3317 29.6297L37.2857 29.6757L37.2419 29.7414L37.196 29.8092L37.1741 29.8552L37.1303 29.9208L37.0843 29.9668L37.0406 30.0346L37.0165 30.0784L36.9727 30.1463L36.9267 30.2141L36.883 30.2579L36.837 30.3258L36.7932 30.3914L36.7713 30.4374L36.7254 30.5052L36.6597 30.4593L36.5919 30.4155L36.5459 30.3914L36.4802 30.3476L36.4124 30.3017L36.3664 30.2798L36.3008 30.236L36.2548 30.2141L36.1869 30.1901L36.1213 30.1682L36.0534 30.1463L36.0096 30.1003L35.9199 30.0784L35.7842 30.0346H35.7163L35.6266 30.0106H35.5609L35.4931 29.9887H35.1341L35.0444 30.0106L35.0006 30.0346L34.9328 30.0565L34.889 30.0784L34.8211 30.1463L34.7752 30.2141L34.7533 30.2579L34.7314 30.3476L34.7752 30.5271L34.8211 30.5709L34.8649 30.6169L34.9328 30.6606L34.9787 30.6847L35.0444 30.7285L35.1341 30.7504L35.2239 30.7745L35.2698 30.7963L35.3355 30.8182H35.4033L35.4493 30.8401L35.5391 30.862L35.6047 30.8861L35.6945 30.908L35.7623 30.9299H35.852L35.9199 30.9518L35.9856 30.9758L36.0753 30.9977L36.211 31.0415L36.2767 31.0656L36.4802 31.1312L36.5459 31.1553L36.6138 31.1991L36.7035 31.221L36.7713 31.2451L36.837 31.2888L36.883 31.3348L36.9508 31.3567L37.0165 31.4005L37.0625 31.4464L37.1303 31.4902L37.1741 31.5362L37.22 31.6018L37.2857 31.6478L37.3317 31.7156L37.3536 31.7594L37.3973 31.8273L37.4433 31.8951L37.4652 31.9389L37.4871 32.0068L37.5112 32.0724V32.1403L37.5549 32.276V32.7685ZM37.6228 12.0143H35.0444V9.4359C35.0444 8.94342 34.6416 8.56257 34.1711 8.56257H33.3196C32.8249 8.56257 32.4441 8.94342 32.4441 9.4359V18.7602C32.4441 19.454 32.7812 19.7911 33.4991 19.7911H34.0135C34.7095 19.7911 35.0444 19.454 35.0444 18.7602V16.3394H37.6228V19.3205C37.6228 21.3605 36.57 22.3695 34.4184 22.3695H33.0942C30.9207 22.3695 29.8679 21.3364 29.8679 19.2308V9.1229C29.8679 7.01509 30.9207 5.98417 33.0942 5.98417H34.3943C36.57 5.98417 37.6228 6.9932 37.6228 9.09882V12.0143ZM21.2156 13.7391V9.4359C21.2156 8.94342 20.8347 8.56257 20.3641 8.56257H19.4908V14.6124H20.3641C20.8347 14.6124 21.2156 14.2315 21.2156 13.7391ZM19.11 32.0286L19.0859 31.9608L19.064 31.8951L19.0202 31.8273L18.9961 31.7594L18.9742 31.7156L18.9524 31.6478L18.9305 31.5581L18.9064 31.5121L18.8626 31.4464L18.8407 31.3786L18.8167 31.3107L18.7948 31.2451L18.751 31.1093L18.705 31.0415L18.6831 30.9758L18.6394 30.8401L18.6153 30.7745L18.5934 30.7066L18.5496 30.6388L18.5255 30.5709L18.5037 30.5052L18.4818 30.5709L18.4599 30.6388L18.4358 30.7066L18.392 30.7745L18.3701 30.8401L18.3461 30.908L18.3242 30.9758L18.2804 31.0415V31.1093L18.2344 31.1772L18.2125 31.2451L18.1907 31.3107L18.1688 31.3786L18.1447 31.4464L18.1228 31.5121L18.079 31.5581L18.055 31.6478L18.0331 31.7156L18.0112 31.7594L17.9893 31.8273L17.9433 31.917L17.9214 31.9608L17.8996 32.0286H19.11Z" fill="white"/>
</svg>
