<svg width="47" height="47" viewBox="0 0 47 47" fill="none" xmlns="http://www.w3.org/2000/svg">
<g clip-path="url(#clip0_41_1059)">
<path d="M36.4356 0H10.5644C4.72937 0 0 4.72937 0 10.5632V36.3381C0 42.1719 4.72937 46.9025 10.5644 46.9025H36.4367C42.2706 46.9013 47 42.1719 47 36.3381V10.5632C47 4.72937 42.2706 0 36.4356 0ZM13.1259 37.2252C12.6888 37.9725 11.9027 38.3872 11.0955 38.3872C10.6925 38.3872 10.2836 38.2838 9.90995 38.0653C8.79017 37.4085 8.41418 35.9691 9.071 34.8505L9.41292 34.2665C10.018 34.0762 10.6549 33.9728 11.3094 33.9916H11.3152C12.5173 34.0268 13.5231 34.5709 14.2104 35.3734L13.1259 37.2252ZM26.3353 31.6381H8.225C6.9278 31.6381 5.875 30.5852 5.875 29.288C5.875 27.9909 6.9278 26.938 8.225 26.938H13.7064L20.5989 15.1763L18.471 11.5444C17.8142 10.4246 18.1902 8.98522 19.3099 8.3284C20.4297 7.67275 21.8691 8.04757 22.5259 9.16735L23.3226 10.5268L24.1192 9.16735C24.7749 8.04757 26.2142 7.67275 27.3352 8.3284C28.455 8.98522 28.831 10.4246 28.1742 11.5444L19.1537 26.938H24.0652C24.7995 27.4268 25.4305 28.0731 25.8853 28.865L25.8888 28.8697C26.4058 29.7686 26.5197 30.7415 26.3353 31.6381ZM38.775 31.6381H35.693L37.5753 34.8493C38.2321 35.9679 37.8561 37.4085 36.7364 38.0641C36.3627 38.2838 35.9538 38.3861 35.5508 38.3861C34.7436 38.3861 33.9587 37.9701 33.5204 37.224L26.293 24.89C25.313 23.07 25.3494 20.8633 26.421 19.082L27.3916 17.4687L32.9388 26.938H38.775C40.0722 26.938 41.125 27.9909 41.125 29.288C41.125 30.5852 40.0722 31.6381 38.775 31.6381Z" fill="white"/>
</g>
<defs>
<clipPath id="clip0_41_1059">
<rect width="47" height="47" fill="white"/>
</clipPath>
</defs>
</svg>
