<svg width="47" height="47" viewBox="0 0 47 47" fill="none" xmlns="http://www.w3.org/2000/svg">
<path d="M46.1011 37.5148L43.0722 42.681C42.5376 43.6607 41.5577 44.1954 40.4886 44.1954H6.01342C4.94437 44.1954 3.9644 43.6607 3.42988 42.681L0.400895 37.5148C-0.133632 36.6241 -0.133632 35.4664 0.400895 34.4866L17.7724 4.64768C18.3069 3.66796 19.2869 3.1333 20.356 3.1333H26.3243C27.3933 3.1333 28.3733 3.66796 28.9078 4.64768L46.1902 34.4866C46.7248 35.3773 46.7248 36.5351 46.1011 37.5148ZM35.8566 30.2111C34.6094 24.5103 31.6695 19.4336 27.5715 15.6922C25.1661 13.4657 21.5141 13.4657 19.1087 15.6922C14.9216 19.5227 11.9817 24.5103 10.8236 30.2111C10.2005 33.3289 12.0708 36.3571 15.0998 37.3368C17.6833 38.1385 20.445 38.5841 23.2959 38.5841C26.1461 38.5841 28.9078 38.1385 31.4913 37.3368C34.6094 36.4461 36.3912 33.3289 35.8566 30.2111Z" fill="white"/>
</svg>
