<svg width="47" height="47" viewBox="0 0 47 47" fill="none" xmlns="http://www.w3.org/2000/svg">
<path d="M23.7825 22.1879L31.6194 26.1766C31.8973 26.3493 32.1365 26.5775 32.3221 26.8468C32.6153 27.2328 32.8654 27.6496 33.0679 28.0899C33.6311 29.6735 33.8844 31.3507 33.8138 33.0299C33.8138 36.2656 32.7112 38.6762 30.5061 40.2616C28.3441 41.8398 25.1012 42.6397 20.8963 42.6397C16.3274 42.6397 12.8287 41.7533 10.4002 39.9805C7.82748 38.0564 6.48708 34.673 6.48708 29.8627C6.41263 28.2496 6.67179 26.6384 7.24838 25.13C7.82497 23.6216 8.70657 22.2483 9.83807 21.0961C10.4761 20.4533 11.1627 19.8606 11.8919 19.3233C12.6182 18.812 13.3845 18.3602 14.1835 17.9721C15.3942 17.3776 16.4536 16.8912 17.4264 16.5561C18.3993 16.221 18.8533 16.0048 18.9398 15.9724C23.0114 14.3509 25.6381 12.4953 26.82 10.4054C27.2022 9.74791 27.4105 9.00386 27.4253 8.24349C27.4473 7.93084 27.4049 7.61699 27.3008 7.32137C27.1967 7.02574 27.033 6.75462 26.82 6.52476C26.4092 6.13561 26.3552 5.90861 26.6254 5.84375C26.9344 5.90586 27.2261 6.0348 27.4801 6.22153C27.734 6.40826 27.9441 6.64826 28.0955 6.92471C28.4733 7.44249 28.6946 8.05773 28.7333 8.69749C28.7333 9.21635 28.7333 9.65955 28.7333 10.0271C28.6903 10.4631 28.6217 10.8962 28.5279 11.3242C28.4153 11.8538 28.2524 12.3714 28.0415 12.87C27.8145 13.3781 27.5334 13.951 27.1983 14.5671C26.1948 16.198 25.0009 17.7039 23.642 19.0531C22.5995 20.1107 21.6213 21.2297 20.7125 22.4041L19.4586 24.1661L18.5182 25.7551L17.9669 27.29L17.6859 28.8358L17.9128 30.1438C18.1376 30.6587 18.4714 31.1187 18.8914 31.492C19.3113 31.8653 19.8073 32.1429 20.345 32.3057C19.9176 31.9072 19.5947 31.4098 19.4046 30.8572C19.1165 30.0831 18.9771 29.2616 18.9938 28.4359C18.9938 27.5062 19.6316 26.2739 20.9287 24.8254C21.6992 23.7688 22.6686 22.8729 23.7825 22.1879ZM21.2206 8.13539C21.2493 8.89117 21.434 9.63284 21.7633 10.3137C22.0926 10.9946 22.5592 11.6 23.1339 12.0917L20.8531 13.3456C20.2177 11.9096 19.897 10.3542 19.9126 8.78397C19.8582 8.15709 20.0224 7.5307 20.3774 7.01119C20.7047 6.54437 21.1287 6.15356 21.6206 5.86537C21.9773 5.69242 22.1502 5.69242 22.1502 5.86537C22.1403 5.9647 22.1103 6.06097 22.062 6.14832C22.0137 6.23567 21.9481 6.31226 21.8692 6.37342C21.4393 6.87125 21.2084 7.51022 21.2206 8.16782V8.13539ZM19.5883 14.0915L15.2645 15.7778L0.790414 8.24349C0.559519 8.1204 0.36506 7.93875 0.226555 7.71676C0.0880495 7.49477 0.0103695 7.24026 0.00131132 6.97876C-0.01206 6.5601 0.0769959 6.14451 0.260742 5.76808C0.345418 5.60676 0.461848 5.46422 0.603029 5.34904C0.74421 5.23387 0.907226 5.14844 1.08227 5.09789C1.50112 4.96737 1.94977 4.96737 2.36862 5.09789L19.5883 14.0915ZM26.82 17.8749L46.407 27.9927C46.7187 28.2659 46.9226 28.6414 46.982 29.0516C47.0415 29.4618 46.9525 29.8798 46.7313 30.2303C46.5966 30.5567 46.3465 30.8222 46.0287 30.9761C45.6624 31.1389 45.2598 31.2023 44.8612 31.1599L24.5824 20.6205L26.82 17.8749Z" fill="white"/>
</svg>
