<svg width="48" height="47" viewBox="0 0 48 47" fill="none" xmlns="http://www.w3.org/2000/svg">
<g clip-path="url(#clip0_41_1046)">
<path d="M1 5V41.8404H48V5H1ZM27.1929 7.04791H45.9521V39.7925H28.5548C28.2788 38.8206 28.0748 37.8286 27.9309 36.8346C27.8189 36.0467 27.7549 35.2787 27.7149 34.5407V34.5307C27.7229 34.5287 27.7289 34.5267 27.7369 34.5247C27.7389 34.5907 27.7349 34.6487 27.7369 34.7147C28.4128 34.6747 29.0868 34.6227 29.7628 34.5407C33.3666 34.1208 36.9205 33.1668 40.2483 31.7029L39.4304 29.8309C36.3685 31.1729 33.1026 32.0608 29.7848 32.4708C29.1088 32.5528 28.4228 32.6268 27.7369 32.6668C27.7369 32.6868 27.7369 32.7108 27.7369 32.7308C27.7329 32.7308 27.7289 32.7288 27.7249 32.7288C27.7249 32.7208 27.7249 32.7148 27.7249 32.7068C27.7249 32.6868 27.7269 32.6768 27.7369 32.6668C27.7269 32.5948 27.7369 32.5328 27.7369 32.4708C27.8289 30.7409 28.1148 29.205 28.4528 27.895C28.5048 27.701 28.5548 27.515 28.6068 27.341C28.6168 27.331 28.6168 27.3111 28.6268 27.2911C28.7608 26.8191 28.9128 26.3791 29.0568 25.9691L29.5588 24.5972H20.6092C21.2031 20.4813 22.3811 16.4875 24.101 12.6997C24.991 10.7438 26.0149 8.84984 27.1929 7.04791ZM11.0456 12.1797H13.1315C13.1335 13.9056 13.1335 15.6315 13.1355 17.3595C12.4355 17.3535 11.7335 17.3495 11.0336 17.3435C11.0376 15.6215 11.0416 13.9016 11.0456 12.1797ZM33.6746 12.2177V17.3075H35.5845V12.2177H33.6746ZM9.46364 29.7689C13.5715 31.5809 17.9233 32.5728 22.3891 32.7168C23.477 32.7468 24.567 32.7388 25.655 32.6668C25.625 33.3228 25.625 34.0088 25.655 34.7147C24.925 34.7667 24.185 34.7867 23.457 34.7867C23.0771 34.7867 22.7091 34.7747 22.3291 34.7647C17.5973 34.6107 12.9855 33.5688 8.63168 31.6429L9.46364 29.7689Z" fill="white"/>
</g>
<defs>
<clipPath id="clip0_41_1046">
<rect width="47" height="47" fill="white" transform="translate(0.5)"/>
</clipPath>
</defs>
</svg>
