<svg width="47" height="47" viewBox="0 0 47 47" fill="none" xmlns="http://www.w3.org/2000/svg">
<g clip-path="url(#clip0_41_1038)">
<path d="M11.7828 0C7.76995 0 4.70568 1.17806 2.74735 3.47298C0.789016 5.7679 0 8.99828 0 12.8975V35.2784C0 42.0299 4.92862 47 11.7828 47H22.381V0H11.7828ZM35.2216 0L24.5906 0.0174851V47H35.2216C42.0911 47 47 42.0364 47 35.25V12.9259C47 4.43029 43.0221 0 35.2216 0ZM11.7828 2.2381H20.1429V44.7619H11.7828C5.95805 44.7619 2.2381 40.9939 2.2381 35.2784V12.8975C2.2381 9.30208 2.97903 6.64872 4.44996 4.92643C5.9209 3.20415 8.18959 2.2381 11.7828 2.2381ZM11.75 6.71429C10.1654 6.71429 8.83436 7.34812 7.9754 8.31417C7.11644 9.28023 6.71429 10.5217 6.71429 11.75C6.71429 12.9783 7.11644 14.2198 7.9754 15.1858C8.83436 16.1519 10.1654 16.7857 11.75 16.7857C13.3346 16.7857 14.6656 16.1519 15.5246 15.1858C16.3836 14.2198 16.7857 12.9783 16.7857 11.75C16.7857 10.5217 16.3836 9.28023 15.5246 8.31417C14.6656 7.34812 13.3346 6.71429 11.75 6.71429ZM11.75 8.95238C12.7751 8.95238 13.4023 9.29771 13.8504 9.80041C14.2985 10.3031 14.5476 11.02 14.5476 11.75C14.5476 12.48 14.2985 13.1969 13.8504 13.6996C13.4023 14.2023 12.7751 14.5476 11.75 14.5476C10.7249 14.5476 10.0977 14.2023 9.6496 13.6996C9.20154 13.1969 8.95238 12.48 8.95238 11.75C8.95238 11.02 9.20154 10.3031 9.6496 9.80041C10.0977 9.29771 10.7249 8.95238 11.75 8.95238ZM35.8095 22.381C38.2771 22.381 40.2857 24.3896 40.2857 26.8571C40.2857 29.3247 38.2771 31.3333 35.8095 31.3333C33.3419 31.3333 31.3333 29.3247 31.3333 26.8571C31.3333 24.3896 33.3419 22.381 35.8095 22.381Z" fill="white"/>
</g>
<defs>
<clipPath id="clip0_41_1038">
<rect width="47" height="47" fill="white"/>
</clipPath>
</defs>
</svg>
