<svg width="47" height="47" viewBox="0 0 47 47" fill="none" xmlns="http://www.w3.org/2000/svg">
<g clip-path="url(#clip0_41_1042)">
<path fill-rule="evenodd" clip-rule="evenodd" d="M11.3164 8.92995C11.7864 7.98995 13.1964 4.69995 13.1964 4.69995L47.0364 20.915L45.3914 23.9699C45.3914 23.9699 37.8714 20.445 33.6414 18.8C29.8814 17.625 24.4764 16.215 22.1264 16.685C21.1864 16.92 19.5414 17.39 18.8364 18.565C19.0064 18.633 19.1728 18.6998 19.337 18.7657C21.4417 19.6107 23.1885 20.312 27.7664 21.6199C31.0564 22.5599 33.1714 26.32 33.1714 29.61C33.1714 35.8579 28.614 38.46 25.3333 40.3332C25.2823 40.3623 25.2317 40.3912 25.1814 40.4199C25.0338 40.715 24.7937 40.8248 24.5773 40.9238C24.4489 40.9825 24.3288 41.0375 24.2414 41.125C22.8314 41.8299 21.1864 42.2999 19.5414 42.2999C18.8364 42.2999 17.6614 42.0649 16.9564 41.8299C16.7729 41.7566 16.5207 41.6603 16.2133 41.5429C14.5511 40.9082 11.2727 39.6564 8.49635 38.07C5.67635 36.4249 3.32635 34.78 2.15135 33.6049C1.21135 32.665 0.506355 31.9599 0.271355 30.5499C-0.198645 28.67 0.0363546 19.27 0.271355 18.33C0.506355 16.92 0.976355 15.51 1.91635 15.275L7.32135 14.335C8.02635 14.1 8.49635 14.1 8.73135 14.1C8.73135 14.1 9.90635 14.805 11.5514 15.51C11.6068 15.288 11.6885 15.0399 11.7747 14.778C12.0537 13.9304 12.3804 12.938 12.0214 12.22C11.958 12.0617 11.8905 11.8991 11.8221 11.7346C11.3827 10.6779 10.9097 9.53998 11.3164 8.92995ZM24.7113 24.675C22.5963 25.38 21.1864 25.85 19.5414 25.85C18.8364 25.85 17.8964 25.8499 16.9564 25.615C15.7814 25.1449 12.2564 23.5 8.96635 21.855C7.31599 20.9548 5.95299 19.9588 4.87735 19.1728C4.26819 18.7276 3.75119 18.3499 3.32635 18.0949C3.09135 18.0949 3.09135 18.095 2.85635 17.86C2.85635 17.9573 2.81603 18.0546 2.7688 18.1687C2.70199 18.33 2.62135 18.5246 2.62135 18.8C2.38635 19.975 2.38635 28.67 2.85635 30.5499C3.09135 31.2549 3.32635 31.725 4.03135 32.43C4.26635 32.9 5.91135 34.3099 9.67135 36.4249C11.8153 37.4969 14.2587 38.4691 15.9609 39.1464C16.8708 39.5085 17.5689 39.7862 17.8964 39.95C18.1076 39.95 18.3664 39.9974 18.6512 40.0497C19.0001 40.1137 19.3882 40.185 19.7764 40.185C21.1864 40.185 22.3614 39.95 23.3014 39.2449C23.4489 38.9499 23.689 38.8401 23.9054 38.7411C24.0338 38.6824 24.1539 38.6274 24.2414 38.5399C27.5314 36.895 30.8214 34.7799 30.8214 29.8449C30.8214 27.26 28.9414 24.4399 26.3564 24.4399C25.6514 24.4399 25.4164 24.44 24.7114 24.6749L24.7113 24.675ZM7.55626 27.9649C7.55626 27.2599 7.79126 26.5549 8.49626 26.5549C8.73126 26.5549 8.73126 26.5549 8.96626 26.7899L12.4913 28.6699C13.1963 28.9049 13.4313 30.0799 13.4313 31.0199C13.4313 31.9599 12.9613 32.1949 12.4913 32.1949C12.3738 32.1949 12.315 32.1362 12.2563 32.0774C12.1975 32.0187 12.1388 31.9599 12.0213 31.9599L8.49626 30.0799C7.79126 29.8449 7.32126 28.9049 7.55626 27.9649Z" fill="white"/>
</g>
<defs>
<clipPath id="clip0_41_1042">
<rect width="47" height="47" fill="white"/>
</clipPath>
</defs>
</svg>
