<svg width="41" height="47" viewBox="0 0 41 47" fill="none" xmlns="http://www.w3.org/2000/svg">
<g clip-path="url(#clip0_41_1036)">
<path d="M8.13603 15.4678H32.4411V35.724C32.4411 36.9273 31.4872 37.903 30.312 37.903H27.8775V44.072C27.8775 45.6386 26.6558 46.9082 25.1476 46.9082C23.6355 46.9082 22.4156 45.6386 22.4156 44.072V37.903H18.1637V44.072C18.1637 45.6386 16.9395 46.9082 15.4314 46.9082C13.9236 46.9082 12.6995 45.6386 12.6995 44.072V37.903H10.2671C9.09168 37.903 8.13594 36.9273 8.13594 35.724L8.13603 15.4678ZM3.37308 15.3025C1.84955 15.3025 0.615479 16.5842 0.615479 18.1665V29.36C0.615479 30.9404 1.84955 32.2244 3.37308 32.2244C4.89688 32.2244 6.13068 30.9404 6.13068 29.36V18.1665C6.13068 16.5842 4.89688 15.3025 3.37308 15.3025ZM32.4412 13.4266H8.13603C8.436 9.88527 10.6822 6.8378 13.9157 5.07328L11.6048 1.60299C11.2931 1.13501 11.4107 0.496472 11.8692 0.177845C12.3271 -0.140782 12.9502 -0.01961 13.2634 0.448003L15.7821 4.23297C17.1785 3.7391 18.6943 3.45554 20.2886 3.45554C21.8847 3.45554 23.4006 3.7391 24.797 4.23361L27.3157 0.44938C27.625 -0.0195182 28.25 -0.14069 28.708 0.177937C29.1664 0.496564 29.284 1.1351 28.9724 1.60308L26.6634 5.07337C29.8968 6.83679 32.1414 9.88426 32.4412 13.4266ZM16.5067 8.61471C16.5067 7.85528 15.9054 7.23932 15.1631 7.23932C14.4189 7.23932 13.8176 7.85528 13.8176 8.61471C13.8176 9.37378 14.4209 9.98946 15.1631 9.98946C15.9053 9.98946 16.5067 9.37378 16.5067 8.61471ZM26.9299 8.61471C26.9299 7.85528 26.3265 7.23932 25.5844 7.23932C24.8403 7.23932 24.2408 7.85528 24.2408 8.61471C24.2408 9.37378 24.8403 9.98946 25.5844 9.98946C26.3266 9.98946 26.9299 9.37378 26.9299 8.61471ZM37.206 15.2985C35.6841 15.2985 34.4465 16.5822 34.4465 18.1646V29.362C34.4465 30.9444 35.6841 32.2285 37.206 32.2285C38.7299 32.2285 39.9616 30.9445 39.9616 29.362V18.1646C39.9617 16.5822 38.7299 15.2985 37.206 15.2985Z" fill="white"/>
</g>
<defs>
<clipPath id="clip0_41_1036">
<rect width="39.7692" height="47" fill="white" transform="translate(0.615479)"/>
</clipPath>
</defs>
</svg>
