<svg width="47" height="47" viewBox="0 0 47 47" fill="none" xmlns="http://www.w3.org/2000/svg">
<path d="M23.5005 1.88C20.121 1.88 17.3827 4.61827 17.3827 7.9978C17.3827 11.3773 20.121 14.1156 23.5005 14.1156C26.88 14.1156 29.6183 11.3773 29.6183 7.9978C29.6183 4.61827 26.88 1.88 23.5005 1.88ZM21.4613 16.0194C20.8638 16.1409 20.2763 16.3142 19.7028 16.5432L1.27972 23.9355C-0.365237 24.5947 -0.442905 26.8929 1.15425 27.6635L16.857 35.2371C21.053 37.2604 25.946 37.2604 30.1421 35.2371L45.8448 27.6635C47.442 26.8929 47.3663 24.5947 45.7213 23.9355L27.2983 16.5432C26.7267 16.3142 26.1372 16.1429 25.5398 16.0214V26.2635C25.5398 27.3907 24.6277 28.3028 23.5005 28.3028C22.3733 28.3028 21.4613 27.3907 21.4613 26.2635V16.0194ZM9.73549 24.3119C11.707 24.3119 13.3042 25.224 13.3042 26.3512C13.3042 27.4764 11.707 28.3904 9.73549 28.3904C7.76394 28.3904 6.16678 27.4764 6.16678 26.3512C6.16678 25.224 7.76394 24.3119 9.73549 24.3119ZM0.98697 30.9973C0.48512 31.0331 0.048988 31.4513 0.048988 32.0109V34.7711C0.048988 35.1634 0.274024 35.5199 0.628506 35.6892L15.8493 42.97C20.6866 45.2841 26.3145 45.2841 31.1517 42.97L46.3725 35.6892C46.727 35.5179 46.9521 35.1614 46.9521 34.7691V32.0169C46.9521 31.2681 46.1714 30.7742 45.4983 31.1008C41.5691 33.0007 31.0283 38.0929 31.0283 38.0929C28.6963 39.2181 26.0914 39.8135 23.5005 39.8135C20.9096 39.8135 18.3048 39.2181 15.9708 38.0929C15.9708 38.0929 5.42197 32.9967 1.49679 31.0968C1.3295 31.0152 1.15425 30.9853 0.98697 30.9973Z" fill="white"/>
</svg>
