<svg width="48" height="47" viewBox="0 0 48 47" fill="none" xmlns="http://www.w3.org/2000/svg">
<path d="M44.9628 19.7492C44.4175 18.2455 43.7401 16.7786 42.857 15.3686C41.9831 13.9678 40.8723 12.6147 39.444 11.4874C38.0248 10.3675 36.1632 9.52299 34.1895 9.36326L33.457 9.32471C33.2018 9.33389 32.9209 9.33389 32.6583 9.36326C32.1223 9.41834 31.6137 9.54135 31.1345 9.68271C30.167 9.98197 29.3206 10.4336 28.5771 10.922C27.2423 11.8069 26.1812 12.8313 25.2228 13.8833C25.232 13.9017 25.2503 13.9127 25.2595 13.9311L25.467 14.1936C25.9462 14.8233 26.989 16.2719 27.9198 17.8324C29.0764 16.7033 30.5801 15.3411 31.2006 14.9463C31.6706 14.6544 32.1314 14.4286 32.5445 14.3074C32.7612 14.2505 32.9576 14.2028 33.1467 14.1936C33.2403 14.1753 33.3248 14.1844 33.4276 14.1753L33.7856 14.1936C34.7073 14.2781 35.6087 14.6544 36.4642 15.3117C38.1662 16.6666 39.5101 18.9689 40.384 21.4033C41.2781 23.847 41.7848 26.5183 41.8123 29.0922C41.8123 30.3242 41.6526 31.5083 41.2781 32.4869C40.9109 33.4728 39.9801 33.8492 38.9281 33.8492C37.3951 33.8492 36.2862 33.1919 35.3921 32.2703C34.4153 31.2458 33.4937 30.0983 32.6106 28.8774C31.8781 27.853 31.1621 26.79 30.4864 25.7086C29.2931 23.7717 27.694 21.3189 26.5851 19.27L24.0001 15.3686C23.7082 15.0033 23.4273 14.6361 23.117 14.2689C22.0723 13.0847 20.9175 11.9189 19.4231 10.922C18.6795 10.4336 17.8332 9.98197 16.8656 9.68271C16.3864 9.54135 15.8779 9.41834 15.3418 9.36326C15.1729 9.34307 15.004 9.33389 14.8351 9.33389C14.7323 9.33389 14.6368 9.32471 14.5432 9.32471L13.8106 9.36326C11.837 9.52299 9.97534 10.3675 8.55616 11.4874C7.1278 12.6147 6.01706 13.9678 5.14315 15.3686C4.26007 16.7786 3.58261 18.2455 3.03733 19.7492C1.97616 22.7583 1.40335 25.8683 1.39233 29.0831C1.40335 30.7574 1.61815 32.4961 2.29561 34.2255C2.95288 35.9183 4.19397 37.712 6.16761 38.7089C7.13698 39.2083 8.23671 39.4708 9.2887 39.4708C10.4453 39.4983 11.5451 39.1697 12.419 38.7474C14.1778 37.8717 15.3895 36.7169 16.4892 35.5511C18.6612 33.1919 20.2676 30.6344 21.7529 28.0311C22.1678 27.3169 22.5625 26.5825 22.9481 25.8408C22.7498 25.4553 22.5533 25.0513 22.3459 24.6272C21.7621 23.6597 21.0387 22.5122 20.5118 21.7136C19.7333 23.1236 18.9237 24.4969 18.0884 25.8592C16.5921 28.2275 14.9856 30.5316 13.1901 32.4208C12.2978 33.3424 11.3101 34.1503 10.4453 34.5358C10.0029 34.7231 9.66507 34.7892 9.37315 34.7708C8.96925 34.7708 8.63144 34.6772 8.31198 34.5083C7.68226 34.1778 7.08925 33.4728 6.72206 32.4869C6.34753 31.5083 6.1878 30.3242 6.1878 29.0922C6.21534 26.5183 6.72206 23.847 7.61616 21.4033C8.49007 18.9689 9.83397 16.6666 11.5359 15.3117C12.3914 14.6544 13.2929 14.2781 14.2145 14.1936L14.5725 14.1753C14.6753 14.1844 14.7598 14.1753 14.8534 14.1936C15.0425 14.2028 15.239 14.2505 15.4556 14.3074C15.6998 14.3827 15.9623 14.4855 16.2359 14.6269C16.4232 14.7205 16.6123 14.8233 16.7995 14.9463C17.7395 15.5467 18.6703 16.4316 19.5442 17.4083C20.2217 18.1703 20.8698 19.0166 21.5179 19.8813L24.0001 23.7258C24.7051 25.1817 25.4376 26.6303 26.2473 28.0311C27.7325 30.6344 29.339 33.1919 31.5109 35.5511C32.1498 36.2377 32.8364 36.9133 33.6442 37.5247C34.2171 37.9763 34.8468 38.3803 35.5812 38.7474C36.4551 39.1697 37.5548 39.4983 38.7114 39.4708C39.7634 39.4708 40.8632 39.2083 41.8325 38.7089C43.8062 37.712 45.0473 35.9183 45.7045 34.2255C46.382 32.4961 46.5968 30.7574 46.6078 29.0831C46.5968 25.8683 46.024 22.7583 44.9628 19.7492Z" fill="white"/>
</svg>
