<svg width="47" height="47" viewBox="0 0 47 47" fill="none" xmlns="http://www.w3.org/2000/svg">
<path d="M23.8571 1C17.6481 1 10.8112 3.35319 9.38811 10.9852C9.18539 11.8 9.80151 12.1856 10.3103 12.289L16.6067 12.8932C17.2188 12.8932 17.6442 12.2969 17.8469 11.6848C18.3557 9.03743 20.5896 7.70978 23.0303 7.70978C24.3539 7.70978 25.8724 8.23845 26.6873 9.45877C27.6015 10.7824 27.4187 12.607 27.4187 14.1334V15.0556C23.6543 15.461 18.7691 15.7552 15.2075 17.2815C11.1371 19.0107 8.27512 22.5802 8.27512 27.8709C8.27512 34.5886 12.5482 37.9515 17.9423 37.9515C22.5215 37.9515 25.0655 36.8146 28.6271 33.1497C29.8474 34.8788 30.2409 35.7056 32.3794 37.5381C32.8882 37.8442 33.5004 37.7209 33.9058 37.3155V37.4427C35.2295 36.3217 37.5747 34.1752 38.8984 33.0543C39.4072 32.7482 39.3039 32.0367 38.8984 31.5279C37.6781 29.8982 36.4498 28.5705 36.4498 25.5177V15.4372C36.4498 11.164 36.7758 7.19303 33.6196 4.24359C31.0756 1.80294 27.0132 1 23.8571 1ZM25.5743 20.3343H27.2915V21.7653C27.2915 24.206 27.3988 26.3326 26.1785 28.5705C25.1609 30.403 23.5271 31.5279 21.6947 31.5279C19.254 31.5279 17.7515 29.7034 17.7515 26.8533C17.7515 22.0714 21.5039 20.6404 25.5743 20.3343ZM43.4776 35.1849C41.8479 35.1849 39.9081 35.5983 38.485 36.6159C38.0796 36.922 38.1034 37.3155 38.6122 37.3155C40.242 37.1128 43.8791 36.6238 44.5906 37.5381C45.2027 38.353 43.8989 41.7913 43.2868 43.4211C43.0841 43.9299 43.4855 44.0451 43.891 43.7391C46.6377 41.3978 47.3572 36.6238 46.8484 36.0117C46.5423 35.5029 45.1073 35.1849 43.4776 35.1849ZM0.325146 36.1071C0.0190729 36.1071 -0.175705 36.6278 0.229746 36.9339C6.33533 42.4273 14.3886 45.7743 23.4437 45.7743C29.8553 45.7743 37.2687 43.751 42.46 39.9867C43.2749 39.3745 42.5753 38.341 41.7604 38.7465C35.9609 41.1871 29.748 42.4035 24.0479 42.4035C15.601 42.4035 7.44832 40.0622 0.833944 36.2979C0.631218 36.0952 0.428493 36.1071 0.325146 36.1071Z" fill="white"/>
</svg>
