<svg width="49" height="47" viewBox="0 0 49 47" fill="none" xmlns="http://www.w3.org/2000/svg">
<g clip-path="url(#clip0_41_1053)">
<path d="M24.5 0C11.5407 0 1 10.5427 1 23.5C1 36.4573 11.5407 47 24.5 47C37.4593 47 48 36.4573 48 23.5C48 10.5427 37.4593 0 24.5 0ZM10.8083 11.2391H16.7352C17.6372 11.2391 18.3696 11.9695 18.3696 12.8735V22.8874C18.3696 23.7914 17.6392 24.5217 16.7352 24.5217H9.17391V22.4783H15.7134C16.0507 22.4783 16.3261 22.2029 16.3261 21.8656V13.8953C16.3261 13.558 16.0507 13.2826 15.7134 13.2826H11.83C11.4928 13.2826 11.2174 13.558 11.2174 13.8953V17.7787C11.2174 18.1159 11.4928 18.3913 11.83 18.3913H14.7935V20.4348H10.8083C9.90629 20.4348 9.17391 19.7044 9.17391 18.8004V12.8735C9.17391 11.9695 9.9043 11.2391 10.8083 11.2391ZM21.5366 11.2391H27.4634C28.3654 11.2391 29.0978 11.9715 29.0978 12.8735V18.8004C29.0978 19.7024 28.3654 20.4348 27.4634 20.4348H21.5366C20.6346 20.4348 19.9022 19.7024 19.9022 18.8004V12.8735C19.9022 11.9715 20.6346 11.2391 21.5366 11.2391ZM32.2648 11.2391H38.1917C39.0937 11.2391 39.8261 11.9695 39.8261 12.8735V22.8874C39.8261 23.7914 39.0957 24.5217 38.1917 24.5217H30.6304V22.4783H37.17C37.5072 22.4783 37.7826 22.2029 37.7826 21.8656V13.8953C37.7826 13.558 37.5072 13.2826 37.17 13.2826H33.2866C32.9493 13.2826 32.6739 13.558 32.6739 13.8953V17.7787C32.6739 18.1159 32.9493 18.3913 33.2866 18.3913H36.25V20.4348H32.2648C31.3628 20.4348 30.6304 19.7044 30.6304 18.8004V12.8735C30.6304 11.9695 31.3608 11.2391 32.2648 11.2391ZM22.5583 13.2826C22.221 13.2826 21.9457 13.558 21.9457 13.8953V17.7787C21.9457 18.1159 22.221 18.3913 22.5583 18.3913H26.4417C26.779 18.3913 27.0543 18.1159 27.0543 17.7787V13.8953C27.0543 13.558 26.779 13.2826 26.4417 13.2826H22.5583ZM10.8083 26.5652H16.837V28.6087H11.83C11.4928 28.6087 11.2174 28.8841 11.2174 29.2213V33.1047C11.2174 33.442 11.4928 33.7174 11.83 33.7174H16.837V35.7609H10.8083C9.90629 35.7609 9.17391 35.0305 9.17391 34.1265V28.1996C9.17391 27.2976 9.9043 26.5652 10.8083 26.5652ZM20.0039 26.5652H25.9308C26.8328 26.5652 27.5652 27.2976 27.5652 28.1996V34.1265C27.5652 35.0285 26.8328 35.7609 25.9308 35.7609H20.0039C19.1019 35.7609 18.3696 35.0285 18.3696 34.1265V28.1996C18.3696 27.2976 19.1019 26.5652 20.0039 26.5652ZM30.7322 26.5652H39.8261V35.7609H37.7826V28.6087H36.0963C35.7591 28.6087 35.4837 28.8841 35.4837 29.2213V35.7609H33.4402V28.6087H31.7539C31.4167 28.6087 31.1413 28.8841 31.1413 29.2213V35.7609H29.0978V28.1996C29.0978 27.2976 29.8282 26.5652 30.7322 26.5652ZM21.0257 28.6087C20.6884 28.6087 20.413 28.8841 20.413 29.2213V33.1047C20.413 33.442 20.6884 33.7174 21.0257 33.7174H24.9091C25.2463 33.7174 25.5217 33.442 25.5217 33.1047V29.2213C25.5217 28.8841 25.2463 28.6087 24.9091 28.6087H21.0257Z" fill="white"/>
</g>
<defs>
<clipPath id="clip0_41_1053">
<rect width="47" height="47" fill="white" transform="translate(1)"/>
</clipPath>
</defs>
</svg>
