<svg width="47" height="47" viewBox="0 0 47 47" fill="none" xmlns="http://www.w3.org/2000/svg">
<path d="M24.7409 20.7664L31.1879 14.1623L4.97442 0.313643C4.34137 -0.0204941 3.66407 -0.071969 3.04998 0.0851656L24.7409 20.7664ZM1.07586 2.08276C1.0298 2.28234 1 2.49095 1 2.7095V44.2906C1 44.5362 1.03251 44.7701 1.09121 44.9923L21.7815 23.7981L1.07586 2.08276ZM24.7039 26.8622L3.12674 46.9339C3.72005 47.0666 4.36756 47.007 4.97442 46.6864L30.6641 33.1142L24.7039 26.8622ZM44.3285 21.1042L35.7593 16.5771L27.9585 23.8342L35.1858 30.7255L44.3285 25.895C46.2539 24.8781 46.2539 22.1219 44.3285 21.1042Z" fill="white"/>
</svg>
