<svg width="48" height="47" viewBox="0 0 48 47" fill="none" xmlns="http://www.w3.org/2000/svg">
<path d="M42.3557 32.6649C41.3422 34.9158 40.8539 35.9219 39.5503 37.9084C37.7254 40.6843 35.1514 44.1506 31.9716 44.1726C29.1406 44.1983 28.4099 42.3256 24.5654 42.3587C20.7246 42.3771 19.9242 44.2093 17.0895 44.1799C13.906 44.1506 11.4715 41.0295 9.64659 38.2572C4.54268 30.4838 4.00292 21.3703 7.15706 16.5234C9.38956 13.0865 12.9182 11.067 16.2339 11.067C19.6121 11.067 21.7344 12.9213 24.525 12.9213C27.2349 12.9213 28.8835 11.0633 32.7904 11.0633C35.7426 11.0633 38.8637 12.6716 41.0962 15.4475C33.7965 19.4499 34.9825 29.8743 42.3557 32.6649ZM29.8235 7.96057C31.2446 6.13564 32.3241 3.56166 31.9312 0.939941C29.6142 1.09783 26.9044 2.5776 25.3218 4.49432C23.8861 6.24213 22.6964 8.83447 23.1591 11.3424C25.689 11.4231 28.3071 9.914 29.8235 7.96057Z" fill="white"/>
</svg>
