<svg width="40" height="47" viewBox="0 0 40 47" fill="none" xmlns="http://www.w3.org/2000/svg">
<g clip-path="url(#clip0_41_1047)">
<path d="M4.49528 44.4734C6.92101 44.7685 9.64439 46.3743 11.9265 46.6589C14.2191 46.954 14.9293 45.0609 14.9293 45.0609C14.9293 45.0609 17.5091 44.4734 20.222 44.4055C22.9376 44.3272 25.5069 44.98 25.5069 44.98C25.5069 44.98 26.003 46.1471 26.9352 46.6589C27.8647 47.1759 29.8701 47.2464 31.1521 45.8651C32.4394 44.4734 35.8704 42.7187 37.8 41.6221C39.7375 40.5254 39.3823 38.8465 38.1656 38.3373C36.9462 37.8281 35.9513 37.0265 36.0245 35.486C36.0923 33.9585 34.9513 32.9375 34.9513 32.9375C34.9513 32.9375 35.9513 29.577 35.0192 26.791C34.0896 24.0206 31.0216 19.5608 28.6611 16.2081C26.3033 12.8476 28.306 8.96491 26.1571 4.00641C24.0081 -0.965147 18.4386 -0.66748 15.4358 1.44752C12.4331 3.56774 13.3548 8.81869 13.4984 11.3097C13.6446 13.7902 13.5663 15.5606 13.2895 16.2003C13.0101 16.8452 11.0727 19.1979 9.78801 21.1666C8.50334 23.1459 7.57378 27.2322 6.63378 28.9216C5.71206 30.5954 6.35439 32.1228 6.35439 32.1228C6.35439 32.1228 5.71206 32.35 5.20551 33.4493C4.70678 34.5355 3.70934 35.0551 1.91551 35.4076C0.132117 35.781 0.132117 36.956 0.560339 38.2694C0.993784 39.5828 0.560339 40.3165 0.0642282 41.9929C-0.434494 43.6692 2.05912 44.1784 4.49528 44.4734ZM29.7082 36.8281C30.9824 37.3973 32.8128 36.6035 33.3689 36.0343C33.9251 35.4677 34.3168 34.6243 34.3168 34.6243C34.3168 34.6243 34.8756 34.9089 34.8181 35.8097C34.7607 36.7236 35.202 38.024 36.0349 38.4757C36.8705 38.9248 38.1447 39.5515 37.4841 40.1781C36.8104 40.8048 33.0896 42.3375 31.9772 43.5308C30.8753 44.7188 29.4262 45.6876 28.5462 45.403C27.6558 45.1184 26.8751 43.8755 27.259 42.0529C27.6558 40.2408 27.9901 38.2511 27.9326 37.1127C27.8726 35.9769 27.6558 34.4467 27.9326 34.2196C28.2094 33.9976 28.6507 34.1047 28.6507 34.1047C28.6507 34.1047 28.4313 36.2615 29.7082 36.8281ZM21.4362 6.12141C22.6634 6.12141 23.653 7.36691 23.653 8.89702C23.653 9.98324 23.1569 10.9259 22.4258 11.3776C22.243 11.2992 22.0498 11.2105 21.8383 11.1217C22.2822 10.8971 22.5877 10.3279 22.5877 9.66991C22.5877 8.80824 22.0707 8.10324 21.4179 8.10324C20.786 8.10324 20.2586 8.80824 20.2586 9.66991C20.2586 9.98324 20.3343 10.2966 20.4596 10.5446C20.0758 10.388 19.7285 10.2496 19.4517 10.1425C19.2989 9.74511 19.221 9.32281 19.222 8.89702C19.222 7.36691 20.209 6.12141 21.4362 6.12141ZM18.3995 10.9076C19.0026 11.0146 20.6633 11.751 21.2769 11.9781C21.8905 12.1922 22.5694 12.5944 22.5041 12.9965C22.4258 13.409 22.1125 13.409 21.2769 13.9286C20.4518 14.4378 18.6501 15.5736 18.0731 15.652C17.4986 15.7303 17.1722 15.3987 16.5586 14.994C15.945 14.584 14.7935 13.6231 15.0833 13.114C15.0833 13.114 15.9842 12.409 16.3758 12.046C16.7675 11.6726 17.7858 10.7927 18.3995 10.9076ZM15.7518 6.5653C16.7179 6.5653 17.5091 7.7403 17.5091 9.19207C17.5091 9.45319 17.4777 9.70124 17.4307 9.9493C17.1678 10.0345 16.9258 10.1742 16.7205 10.3592C16.6082 10.4559 16.5012 10.542 16.4072 10.6412C16.5716 10.2792 16.6208 9.87543 16.5482 9.48452C16.4176 8.70119 15.8954 8.12413 15.3888 8.19985C14.8797 8.28863 14.5742 9.00669 14.6969 9.79785C14.8327 10.6021 15.3392 11.1817 15.8588 11.093L15.945 11.0642C15.721 11.2943 15.4801 11.5072 15.2243 11.7014C14.5246 11.3671 14.0076 10.3697 14.0076 9.19207C14.0076 7.72985 14.7831 6.5653 15.7518 6.5653ZM10.3651 25.5481C11.3599 23.9422 12.0048 20.4303 13.0023 19.2657C14.0076 18.1012 14.7831 15.6206 14.4306 14.524C14.4306 14.524 16.5769 17.1507 18.0731 16.7173C19.5692 16.276 22.935 13.7197 23.4337 14.1584C23.9324 14.6023 28.2198 24.2373 28.6507 27.3027C29.0841 30.3708 28.3635 32.713 28.3635 32.713C28.3635 32.713 26.7237 32.2691 26.5122 33.29C26.3033 34.3188 26.3033 38.0422 26.3033 38.0422C26.3033 38.0422 24.0838 41.1808 20.6528 41.6978C17.2218 42.2096 15.5011 41.8388 15.5011 41.8388L13.5741 39.5828C13.5741 39.5828 15.0729 39.3556 14.8614 37.8177C14.6525 36.2902 10.2841 34.1726 9.50078 32.2717C8.71484 30.3708 9.35717 27.1539 10.3651 25.5481ZM1.87895 37.0526C2.04867 36.3006 4.27334 36.3006 5.12717 35.7732C5.98101 35.2431 6.15334 33.7209 6.84267 33.3187C7.52156 32.9088 8.78012 34.3684 9.29712 35.1909C9.80628 35.9951 11.7516 39.5045 12.548 40.3766C13.3548 41.2591 14.0937 42.4237 13.8613 43.4734C13.6446 44.523 12.4331 45.2881 12.4331 45.2881C11.3521 45.6275 8.33362 44.2959 6.96017 43.7084C5.58673 43.1209 2.09567 42.9433 1.64656 42.4237C1.18439 41.8962 1.86851 40.7265 2.04867 39.622C2.21056 38.5044 1.70401 37.8072 1.87634 37.0526H1.87895Z" fill="white"/>
</g>
<defs>
<clipPath id="clip0_41_1047">
<rect width="39.95" height="47" fill="white"/>
</clipPath>
</defs>
</svg>
