<svg width="47" height="47" viewBox="0 0 47 47" fill="none" xmlns="http://www.w3.org/2000/svg">
<g clip-path="url(#clip0_41_1051)">
<path d="M39.0005 17.4001C40.3613 13.2106 40.6173 9.39055 39.6899 6.49617C39.6812 6.46968 39.6722 6.44241 39.6633 6.41552C39.6077 6.25847 39.4693 5.92649 39.2939 5.92649C39.1607 5.92649 39.1588 6.14869 39.1665 6.26165C39.1692 6.28337 39.172 6.30482 39.1745 6.32667C39.4701 8.9109 38.6795 12.5986 37.0904 16.4594C33.8312 14.9796 29.9167 13.7977 25.5749 13.1008C21.6723 12.4739 17.9365 12.3356 14.5483 12.6123C14.9512 9.94696 15.9464 8.09331 17.5794 7.70226C19.8271 7.16411 22.2788 8.64249 24.6164 11.333C25.0204 11.3882 25.4251 11.4483 25.8304 11.5131C26.9839 11.6985 28.1161 11.9183 29.227 12.1725C24.965 4.15561 19.2482 -0.337462 14.9005 1.32112C11.592 2.58231 9.90173 7.13445 10.1031 13.2523C5.79448 14.1687 2.35827 15.8571 0.315398 18.1073C0.296332 18.1283 0.277663 18.1496 0.258851 18.1706C0.150667 18.2973 -0.0676922 18.5831 0.0204964 18.7351C0.0867097 18.8504 0.280439 18.7409 0.374456 18.6779C0.391808 18.6646 0.409017 18.6515 0.426635 18.6382C2.51692 17.09 6.10581 15.9308 10.2437 15.3766C10.5918 18.9388 11.5262 22.9197 13.0931 27.0286C14.5014 30.7218 16.2495 34.0264 18.1833 36.8222C15.6734 37.8059 13.5707 37.8707 12.4156 36.6521C10.8255 34.9747 10.8795 32.1125 12.0413 28.7425C11.8872 28.3651 11.7368 27.9847 11.5902 27.6012C11.1739 26.5096 10.7982 25.4193 10.463 24.3303C5.65014 32.0297 4.61738 39.2272 8.22721 42.1635C10.9742 44.3981 15.7621 43.5858 20.9597 40.3529C23.9075 43.626 27.0878 45.7578 30.058 46.4018C30.0857 46.4077 30.1133 46.4133 30.1412 46.4191C30.305 46.4494 30.6615 46.4957 30.7494 46.3436C30.8156 46.2281 30.6245 46.1154 30.5227 46.0656C30.5026 46.057 30.483 46.0487 30.4626 46.04C28.0766 45.0038 25.2782 42.4754 22.7291 39.169C25.6402 37.0862 28.6204 34.2868 31.3955 30.8754C33.8897 27.8091 35.8774 24.643 37.3318 21.5703C39.4386 23.252 40.5462 25.0407 40.0684 26.6504C39.4108 28.866 36.905 30.2503 33.4056 30.9293C33.1559 31.2515 32.9015 31.5718 32.6427 31.8906C31.9055 32.7969 31.149 33.6675 30.3733 34.5024C39.4472 34.8203 46.1966 32.1155 46.9346 27.5212C47.4967 24.0253 44.3995 20.2853 39.0005 17.4001ZM31.1191 26.5637C27.9192 30.4975 23.9304 33.8468 20.3834 35.7832C19.0497 33.6401 17.8683 31.3157 16.9642 28.9451C15.1573 24.2071 14.251 19.0778 14.3478 15.038C16.8703 14.9546 19.4742 15.0935 21.9792 15.496C26.9858 16.3001 31.881 18.0798 35.3312 20.1836C34.142 22.4101 32.7207 24.5954 31.1191 26.5637Z" fill="white"/>
</g>
<defs>
<clipPath id="clip0_41_1051">
<rect width="47" height="47" fill="white"/>
</clipPath>
</defs>
</svg>
