<svg width="48" height="47" viewBox="0 0 48 47" fill="none" xmlns="http://www.w3.org/2000/svg">
<path d="M12.8595 3.76001C8.11731 3.76001 4.26001 7.61731 4.26001 12.3595V34.6405C4.26001 39.3827 8.11731 43.24 12.8595 43.24H35.1386C39.8827 43.24 43.74 39.3827 43.74 34.6405V12.3595C43.74 7.61731 39.8827 3.76001 35.1405 3.76001H12.8595ZM18.36 15.98H29.64C33.7929 15.98 37.16 19.3471 37.16 23.5C37.16 27.6529 33.7929 31.02 29.64 31.02H18.36C14.2071 31.02 10.84 27.6529 10.84 23.5C10.84 19.3471 14.2071 15.98 18.36 15.98ZM18.36 20.68C16.8031 20.68 15.54 21.9431 15.54 23.5C15.54 25.0569 16.8031 26.32 18.36 26.32H29.64C31.1969 26.32 32.46 25.0569 32.46 23.5C32.46 21.9431 31.1969 20.68 29.64 20.68H18.36Z" fill="white"/>
</svg>
