<svg width="47" height="47" viewBox="0 0 47 47" fill="none" xmlns="http://www.w3.org/2000/svg">
<g id="Frame" clip-path="url(#clip0_301_806)">
<path id="Vector" d="M18.1537 3.76001C17.871 3.76001 17.5846 3.74899 17.3019 3.93626C17.0191 4.12353 16.92 4.41728 16.92 4.70001V39.0981C16.92 39.4727 17.1917 39.8509 17.5662 40.0381L25.0863 42.3H25.38C25.5673 42.3 25.7509 42.2192 25.9381 42.1238C26.2209 41.9365 26.32 41.6427 26.32 41.36V12.6019C26.8855 12.8846 27.26 13.4427 27.26 14.1V24.5281C27.26 24.8109 27.4473 25.1964 27.73 25.2919C27.9173 25.3874 29.3273 26.2319 31.96 26.2319C34.4973 26.2319 37.6 24.8292 37.6 18.1538C37.6 12.7965 34.6037 8.7354 29.4338 7.13813L18.1537 3.76001ZM15.98 24.8219L5.55188 28.5819L4.05375 29.14C1.51648 30.1755 0 31.8535 0 33.5463C0 37.119 2.53727 39.1863 7.05 39.1863C9.49547 39.1863 12.5027 38.6465 15.98 37.4238V33.84C15.1355 34.1227 14.2065 34.4973 13.4537 34.78C11.9483 35.3455 10.81 35.5438 9.87 35.5438C8.46 35.5438 7.80273 35.0627 7.52 34.78C7.14547 34.4973 6.95453 34.1338 7.05 33.6638C7.14547 32.7238 8.27273 31.8609 10.34 31.1081C10.81 30.9209 14.0045 29.7973 15.98 29.14V24.8219ZM34.31 27.1719C32.0555 27.2674 29.7055 27.6309 27.26 28.2881V32.6063C28.2955 32.2317 29.6908 31.7727 31.6663 31.02C36.179 29.4227 38.0627 29.599 38.6281 29.7863C39.7554 29.8817 40.2327 30.55 40.42 31.02C40.89 32.43 39.1165 33.0763 36.4837 34.0163C35.261 34.4863 29.9845 36.3663 27.26 37.3063V41.6538L41.83 36.4838L42.9463 36.0138C44.8262 35.3565 47.1873 34.1227 47 31.96C46.9045 29.8927 44.3783 28.8536 42.5938 28.2881C39.961 27.4436 37.13 27.0764 34.31 27.1719Z" fill="white"/>
</g>
<defs>
<clipPath id="clip0_301_806">
<rect width="47" height="47" fill="white"/>
</clipPath>
</defs>
</svg>
