<svg width="48" height="47" viewBox="0 0 48 47" fill="none" xmlns="http://www.w3.org/2000/svg">
<g id="Frame">
<path id="Vector" d="M24 1.88C19.9664 1.88 16.122 3.00911 12.933 4.98274C12.7273 5.05067 12.3712 5.32239 12.048 5.60879C14.9103 3.33407 21.5288 7.88903 23.4621 9.24579C23.787 9.47344 24.2148 9.47344 24.5398 9.24579C26.473 7.88903 33.0916 3.33407 35.9538 5.60879C35.6307 5.32239 35.2745 5.05067 35.0689 4.98274C31.8798 3.00911 28.0336 1.88 24 1.88ZM10.84 7.52001C9.3382 7.52001 8.24215 8.74274 8.24215 8.74274C4.67676 12.5964 2.42773 17.7664 2.42773 23.5C2.42773 35.4373 12.0884 45.12 24 45.12C30.2844 45.12 36.0052 42.3936 39.9451 38.07C39.9451 38.07 39.477 35.25 36.5688 31.1136C33.3174 26.2099 26.73 20.0338 24.6224 18.1372C24.2625 17.8141 23.7264 17.8159 23.3684 18.1427C21.7804 19.5968 17.6807 23.6671 16.7774 24.7227C14.6202 26.9791 8.61668 34.1209 8.24215 38.1636C8.24215 38.1636 6.92762 34.9691 9.83574 27.6364C11.646 23.232 17.2658 16.6832 19.9903 13.8265C20.352 13.4482 20.3428 12.8497 19.9609 12.4899C19.0577 11.6454 16.9555 10.1638 15.059 9.02364C13.7463 8.17727 12.2463 7.61364 10.84 7.52001ZM36.8681 7.52001C36.2549 7.52001 32.2672 8.78313 28.0703 12.5009C27.6737 12.8516 27.6572 13.4666 28.0262 13.8466C29.5464 15.4182 33.7029 19.4407 36.1943 23.4064C39.2897 28.4827 41.1642 32.5236 40.0388 38.07C43.5087 34.2164 45.6677 29.14 45.6677 23.5C45.5741 17.86 43.4169 12.69 39.8515 8.83637C39.7579 8.74274 39.6642 8.64727 39.5706 8.55364C38.8197 7.70727 37.7126 7.52001 36.8681 7.52001Z" fill="white"/>
</g>
</svg>
