<svg width="47" height="47" viewBox="0 0 47 47" fill="none" xmlns="http://www.w3.org/2000/svg">
<g clip-path="url(#clip0_41_1054)">
<path d="M23.3832 0C11.195 0 1.17458 9.27357 0 21.1508L11.9545 27.2699C13.1624 26.256 14.7313 25.6364 16.44 25.6364H16.4942C16.9115 24.9959 17.3892 24.1926 17.892 23.3602C18.9394 21.6411 20.1139 19.6967 21.2677 18.2008C21.5243 13.4253 25.4882 9.61364 30.3263 9.61364C35.3355 9.61364 39.4059 13.684 39.4059 18.6932C39.4059 23.5313 35.5942 27.4953 30.8187 27.7519C29.3228 28.9056 27.3888 30.0802 25.6593 31.1171C24.8269 31.6303 24.0237 32.108 23.3832 32.5253V32.5795C23.3832 36.4142 20.2746 39.5227 16.44 39.5227C12.6054 39.5227 9.4968 36.4142 9.4968 32.5795C9.4968 32.398 9.50723 32.227 9.51767 32.0455L0.181508 27.2595C1.98615 38.4545 11.6874 47 23.3832 47C36.362 47 46.8832 36.4788 46.8832 23.5C46.8832 10.5212 36.362 0 23.3832 0ZM30.3263 11.75C26.5022 11.75 23.3832 14.869 23.3832 18.6932C23.3832 22.5174 26.5022 25.6364 30.3263 25.6364C34.1505 25.6364 37.2695 22.5174 37.2695 18.6932C37.2695 14.869 34.1505 11.75 30.3263 11.75ZM30.3263 13.8864C32.9864 13.8864 35.1332 16.0332 35.1332 18.6932C35.1332 21.3532 32.9864 23.5 30.3263 23.5C27.6663 23.5 25.5195 21.3532 25.5195 18.6932C25.5195 16.0332 27.6663 13.8864 30.3263 13.8864ZM16.44 27.7727C15.5971 27.7727 14.796 27.9876 14.1117 28.3819L17.6584 30.197C18.9727 30.8709 19.4839 32.4836 18.8225 33.7979C18.3427 34.7159 17.4122 35.25 16.44 35.25C16.0227 35.25 15.6159 35.154 15.2216 34.9621L11.6645 33.1345C11.9419 35.5275 13.9719 37.3864 16.44 37.3864C19.1 37.3864 21.2468 35.2396 21.2468 32.5795C21.2468 29.9195 19.1 27.7727 16.44 27.7727Z" fill="white"/>
</g>
<defs>
<clipPath id="clip0_41_1054">
<rect width="47" height="47" fill="white"/>
</clipPath>
</defs>
</svg>
